<mxfile host="app.diagrams.net" modified="2020-07-27T18:15:13.640Z" agent="5.0 (Windows)" etag="abDvBVCkGmKHuIUCrjQE" version="13.5.3" type="github">
  <diagram id="3i7mIp7XBUqKGTwvNZQW" name="Page-1">
    <mxGraphModel dx="1422" dy="831" grid="1" gridSize="10" guides="1" tooltips="1" connect="1" arrows="1" fold="1" page="1" pageScale="1" pageWidth="1100" pageHeight="850" math="0" shadow="0">
      <root>
        <mxCell id="0" />
        <mxCell id="1" parent="0" />
        <mxCell id="7gINfQHrTqhvDaZMtgAT-1" value="" style="rounded=0;whiteSpace=wrap;html=1;align=left;fillColor=#f8cecc;strokeColor=#b85450;" vertex="1" parent="1">
          <mxGeometry x="480" y="320" width="400" height="40" as="geometry" />
        </mxCell>
        <mxCell id="7gINfQHrTqhvDaZMtgAT-2" value="" style="rounded=0;whiteSpace=wrap;html=1;align=left;" vertex="1" parent="1">
          <mxGeometry x="480" y="220" width="400" height="40" as="geometry" />
        </mxCell>
        <mxCell id="7gINfQHrTqhvDaZMtgAT-3" value="" style="rounded=0;whiteSpace=wrap;html=1;align=left;" vertex="1" parent="1">
          <mxGeometry x="480" y="120" width="400" height="40" as="geometry" />
        </mxCell>
        <mxCell id="7gINfQHrTqhvDaZMtgAT-4" value="User" style="shape=umlActor;verticalLabelPosition=bottom;verticalAlign=top;html=1;outlineConnect=0;" vertex="1" parent="1">
          <mxGeometry x="40" y="200" width="40" height="80" as="geometry" />
        </mxCell>
        <mxCell id="7gINfQHrTqhvDaZMtgAT-6" value="Competent website" style="rounded=0;whiteSpace=wrap;html=1;" vertex="1" parent="1">
          <mxGeometry x="480" y="120" width="160" height="40" as="geometry" />
        </mxCell>
        <mxCell id="7gINfQHrTqhvDaZMtgAT-7" value="Less-competent website" style="rounded=0;whiteSpace=wrap;html=1;" vertex="1" parent="1">
          <mxGeometry x="480" y="220" width="160" height="40" as="geometry" />
        </mxCell>
        <mxCell id="7gINfQHrTqhvDaZMtgAT-8" value="Dubious website" style="rounded=0;whiteSpace=wrap;html=1;fontStyle=1;fillColor=#f8cecc;strokeColor=#b85450;" vertex="1" parent="1">
          <mxGeometry x="480" y="320" width="160" height="40" as="geometry" />
        </mxCell>
        <mxCell id="7gINfQHrTqhvDaZMtgAT-12" value="&lt;b&gt;&lt;font style=&quot;font-size: 16px&quot;&gt;Password stored as&lt;br&gt;&lt;/font&gt;&lt;/b&gt;" style="text;html=1;strokeColor=none;fillColor=none;align=center;verticalAlign=middle;whiteSpace=wrap;rounded=0;" vertex="1" parent="1">
          <mxGeometry x="640" y="80" width="240" height="40" as="geometry" />
        </mxCell>
        <mxCell id="7gINfQHrTqhvDaZMtgAT-13" value="&lt;div&gt;scrypt(&lt;font color=&quot;#660000&quot;&gt;Random1&lt;/font&gt;, Salt)&lt;/div&gt;&lt;div&gt;bcrypt(&lt;font color=&quot;#660000&quot;&gt;Random1&lt;/font&gt;, Salt)&lt;br&gt;&lt;/div&gt;" style="text;html=1;strokeColor=none;fillColor=none;align=center;verticalAlign=middle;whiteSpace=wrap;rounded=0;" vertex="1" parent="1">
          <mxGeometry x="640" y="120" width="240" height="40" as="geometry" />
        </mxCell>
        <mxCell id="7gINfQHrTqhvDaZMtgAT-14" value="PBKDF2(HMACâˆ’SHA1, &lt;font color=&quot;#CC6600&quot;&gt;Random2&lt;/font&gt;, Salt, ...)" style="text;html=1;strokeColor=none;fillColor=none;align=center;verticalAlign=middle;whiteSpace=wrap;rounded=0;" vertex="1" parent="1">
          <mxGeometry x="640" y="220" width="240" height="40" as="geometry" />
        </mxCell>
        <mxCell id="7gINfQHrTqhvDaZMtgAT-15" value="&lt;div&gt;&lt;font color=&quot;#004C99&quot;&gt;Random3 &lt;/font&gt;&lt;i&gt;(as plaintext)&lt;/i&gt;&lt;/div&gt;&lt;div&gt;MD5(&lt;font color=&quot;#004C99&quot;&gt;Random3&lt;/font&gt;)&lt;br&gt;&lt;/div&gt;" style="text;html=1;strokeColor=#b85450;fillColor=#f8cecc;align=center;verticalAlign=middle;whiteSpace=wrap;rounded=0;" vertex="1" parent="1">
          <mxGeometry x="640" y="320" width="240" height="40" as="geometry" />
        </mxCell>
        <mxCell id="7gINfQHrTqhvDaZMtgAT-16" value="Competent website" style="rounded=0;whiteSpace=wrap;html=1;fontStyle=1" vertex="1" parent="1">
          <mxGeometry x="480" y="120" width="160" height="40" as="geometry" />
        </mxCell>
        <mxCell id="7gINfQHrTqhvDaZMtgAT-17" value="Less-competent website" style="rounded=0;whiteSpace=wrap;html=1;fontStyle=1" vertex="1" parent="1">
          <mxGeometry x="480" y="220" width="160" height="40" as="geometry" />
        </mxCell>
        <mxCell id="7gINfQHrTqhvDaZMtgAT-18" value="Password vault" style="shape=cylinder;whiteSpace=wrap;html=1;boundedLbl=1;backgroundOutline=1;" vertex="1" parent="1">
          <mxGeometry x="240" y="200" width="80" height="80" as="geometry" />
        </mxCell>
        <mxCell id="7gINfQHrTqhvDaZMtgAT-19" value="Random1" style="endArrow=classic;html=1;entryX=0;entryY=0.5;entryDx=0;entryDy=0;fontColor=#660000;" edge="1" parent="1" source="7gINfQHrTqhvDaZMtgAT-18" target="7gINfQHrTqhvDaZMtgAT-16">
          <mxGeometry width="50" height="50" relative="1" as="geometry">
            <mxPoint x="480" y="450" as="sourcePoint" />
            <mxPoint x="530" y="400" as="targetPoint" />
          </mxGeometry>
        </mxCell>
        <mxCell id="7gINfQHrTqhvDaZMtgAT-20" value="Random2" style="endArrow=classic;html=1;entryX=0;entryY=0.5;entryDx=0;entryDy=0;fontColor=#CC6600;" edge="1" parent="1" source="7gINfQHrTqhvDaZMtgAT-18" target="7gINfQHrTqhvDaZMtgAT-17">
          <mxGeometry width="50" height="50" relative="1" as="geometry">
            <mxPoint x="480" y="450" as="sourcePoint" />
            <mxPoint x="530" y="400" as="targetPoint" />
          </mxGeometry>
        </mxCell>
        <mxCell id="7gINfQHrTqhvDaZMtgAT-21" value="Random3" style="endArrow=classic;html=1;entryX=0;entryY=0.5;entryDx=0;entryDy=0;fontColor=#004C99;" edge="1" parent="1" source="7gINfQHrTqhvDaZMtgAT-18" target="7gINfQHrTqhvDaZMtgAT-8">
          <mxGeometry width="50" height="50" relative="1" as="geometry">
            <mxPoint x="480" y="450" as="sourcePoint" />
            <mxPoint x="530" y="400" as="targetPoint" />
          </mxGeometry>
        </mxCell>
        <mxCell id="7gINfQHrTqhvDaZMtgAT-24" value="&lt;div&gt;Unlock with&lt;/div&gt;&lt;div&gt;master password&lt;/div&gt;" style="endArrow=classic;html=1;" edge="1" parent="1" source="7gINfQHrTqhvDaZMtgAT-4" target="7gINfQHrTqhvDaZMtgAT-18">
          <mxGeometry width="50" height="50" relative="1" as="geometry">
            <mxPoint x="400" y="420" as="sourcePoint" />
            <mxPoint x="450" y="370" as="targetPoint" />
          </mxGeometry>
        </mxCell>
        <mxCell id="7gINfQHrTqhvDaZMtgAT-25" value="" style="html=1;verticalLabelPosition=bottom;align=center;labelBackgroundColor=#ffffff;verticalAlign=top;strokeWidth=2;shadow=0;dashed=0;shape=mxgraph.ios7.icons.locked;fillColor=#dae8fc;strokeColor=#6c8ebf;" vertex="1" parent="1">
          <mxGeometry x="296" y="200" width="24" height="30" as="geometry" />
        </mxCell>
        <mxCell id="7gINfQHrTqhvDaZMtgAT-26" value="" style="shape=curlyBracket;whiteSpace=wrap;html=1;rounded=1;direction=north;" vertex="1" parent="1">
          <mxGeometry x="320" y="380" width="160" height="20" as="geometry" />
        </mxCell>
        <mxCell id="7gINfQHrTqhvDaZMtgAT-27" value="&lt;div&gt;Very strong, random strings as independent, per-service passwords&lt;/div&gt;" style="text;html=1;strokeColor=none;fillColor=none;align=center;verticalAlign=middle;whiteSpace=wrap;rounded=0;" vertex="1" parent="1">
          <mxGeometry x="320" y="400" width="160" height="40" as="geometry" />
        </mxCell>
        <mxCell id="7gINfQHrTqhvDaZMtgAT-28" value="Attacker" style="shape=umlActor;verticalLabelPosition=bottom;verticalAlign=top;html=1;outlineConnect=0;fillColor=#f8cecc;strokeColor=#b85450;fontColor=#FF0000;" vertex="1" parent="1">
          <mxGeometry x="850" y="360" width="40" height="80" as="geometry" />
        </mxCell>
        <mxCell id="7gINfQHrTqhvDaZMtgAT-29" value="Compromises" style="endArrow=classic;html=1;fontColor=#FF0000;fillColor=#f8cecc;strokeColor=#b85450;" edge="1" parent="1" source="7gINfQHrTqhvDaZMtgAT-28">
          <mxGeometry width="50" height="50" relative="1" as="geometry">
            <mxPoint x="490" y="360" as="sourcePoint" />
            <mxPoint x="750" y="360" as="targetPoint" />
          </mxGeometry>
        </mxCell>
        <mxCell id="7gINfQHrTqhvDaZMtgAT-30" value="" style="endArrow=classic;html=1;fontColor=#FF0000;exitX=1;exitY=0.5;exitDx=0;exitDy=0;entryX=1;entryY=0.5;entryDx=0;entryDy=0;fillColor=#d5e8d4;strokeColor=#82b366;dashed=1;" edge="1" parent="1" source="7gINfQHrTqhvDaZMtgAT-15" target="7gINfQHrTqhvDaZMtgAT-14">
          <mxGeometry width="50" height="50" relative="1" as="geometry">
            <mxPoint x="920" y="340" as="sourcePoint" />
            <mxPoint x="920" y="240" as="targetPoint" />
            <Array as="points">
              <mxPoint x="920" y="320" />
              <mxPoint x="920" y="290" />
              <mxPoint x="920" y="260" />
            </Array>
          </mxGeometry>
        </mxCell>
        <mxCell id="7gINfQHrTqhvDaZMtgAT-34" value="" style="endArrow=classic;html=1;fontColor=#FF0000;exitX=1;exitY=0.5;exitDx=0;exitDy=0;entryX=1;entryY=0.5;entryDx=0;entryDy=0;fillColor=#d5e8d4;strokeColor=#82b366;dashed=1;" edge="1" parent="1" target="7gINfQHrTqhvDaZMtgAT-13">
          <mxGeometry width="50" height="50" relative="1" as="geometry">
            <mxPoint x="880" y="340" as="sourcePoint" />
            <mxPoint x="880" y="240" as="targetPoint" />
            <Array as="points">
              <mxPoint x="960" y="320" />
              <mxPoint x="960" y="290" />
              <mxPoint x="960" y="160" />
            </Array>
          </mxGeometry>
        </mxCell>
        <mxCell id="7gINfQHrTqhvDaZMtgAT-35" value="" style="shape=curlyBracket;whiteSpace=wrap;html=1;rounded=1;direction=west;fillColor=#d5e8d4;strokeColor=#82b366;" vertex="1" parent="1">
          <mxGeometry x="980" y="120" width="20" height="160" as="geometry" />
        </mxCell>
        <mxCell id="7gINfQHrTqhvDaZMtgAT-36" value="&lt;div&gt;Because these per-site passwords are independent, compromising one service does not expose other services.&lt;/div&gt;&lt;div&gt;&lt;br&gt;&lt;/div&gt;&lt;div&gt;However, &lt;b&gt;the vault itself &lt;/b&gt;becomes a single-point of failure.&lt;br&gt;&lt;/div&gt;" style="text;html=1;strokeColor=none;fillColor=none;align=center;verticalAlign=middle;whiteSpace=wrap;rounded=0;fontColor=#006600;" vertex="1" parent="1">
          <mxGeometry x="1000" y="120" width="160" height="160" as="geometry" />
        </mxCell>
      </root>
    </mxGraphModel>
  </diagram>
</mxfile>
